<svg xmlns="http://www.w3.org/2000/svg" version="1.2" viewBox="0 0 700 700"><style>.s0{fill:#3b425c}.s1{fill:#fefefe}</style><path id="Path 1" d="M234 19c-4 1-5 2-5 3l5 9a230 230 0 0 1 13 22l6 9 2 4-6 9a606 606 0 0 1-25 29 1400 1400 0 0 1-31 39l1 8a347 347 0 0 1 3 21c0 5-1 8-9 25l-12 25a1003 1003 0 0 1-28 60l-5 12c-4 6-6 12-6 13l2 3 8 7 13 11 13 11 6 5 30-30 6-2c2 0 3 1 3 4l-2 9c0 3-2 7-3 8l-2 4 4 3 12 2 11 2c3 0 4-2 24-31a2108 2108 0 0 0 31-43 156 156 0 0 0 39-7c1-1 1 0 1 2l-4 10a824 824 0 0 1-15 26 302 302 0 0 1-62 64 1701 1701 0 0 1-45 39 487 487 0 0 0-32 33 245 245 0 0 0-19 30 176 176 0 0 0-9 25 197 197 0 0 0-4 36v4h113l-2 7-4 9-3 7c-42 1-51 2-53 3l-8 5-6 9-1 8 1 7 2 5 1 1 3 4c1 2 5 4 7 5 5 2 7 2 30 2l26 1 4 11 4 12c0 2-3 2-52 2h-52v52h409v-51l-104-1a427 427 0 0 0 7-22l1-4c52 0 54-1 57-3l7-4 3-6 2-11-1-10-4-6-6-5c-4-2-6-3-30-3h-26l-7-20v-3c94-1 98-1 99-3l1-7 1-14a723 723 0 0 0-28-236 556 556 0 0 0-35-77 1032 1032 0 0 0-23-34 670 670 0 0 0-56-58 438 438 0 0 0-71-46 527 527 0 0 0-43-18l-16-8a222 222 0 0 0-35-13l-12-1-9 1z" class="s0"/><path id="Path 2" d="m245 29 2 4 3 4c0 2 4 7 7 12a348 348 0 0 0 10 18l-1 3-9 10a665 665 0 0 1-29 35l-8 10a484 484 0 0 1-17 22l1 9 3 12c1 5 1 8-1 12l-5 13-8 17-8 17-10 20a1556 1556 0 0 1-26 58l5 6a291 291 0 0 1 21 17c2 2 3 2 13-8 8-8 12-11 18-14l10-4 5 2c2 0 4 2 4 4l3 7-1 10c-2 5-2 6 0 7l5 1h4a3277 3277 0 0 0 47-71l11-2a263 263 0 0 0 28-5l10-3 6-4 4-8a213 213 0 0 0 7-83l-2-16a152 152 0 0 0-7-27l-4-11a241 241 0 0 0-19-37c-5-8-8-10-14-14a247 247 0 0 0-42-21l-13-3-3 1zm81 31 4 8a209 209 0 0 1 24 58l2 9a155 155 0 0 1 4 31v26a452 452 0 0 1-11 59l-5 14a643 643 0 0 0-15 31 308 308 0 0 1-39 49 366 366 0 0 1-36 32l-13 11a944 944 0 0 0-39 35 272 272 0 0 0-29 34 178 178 0 0 0-15 33 212 212 0 0 0-5 29l-1 5 116-1 1-5 1-13a239 239 0 0 1 5-23l3-7a400 400 0 0 1 15-28 256 256 0 0 1 56-56 544 544 0 0 0 90-93 347 347 0 0 0 20-43 228 228 0 0 0 10-84l-6-9-8-9a481 481 0 0 0-84-71 556 556 0 0 0-45-22zm154 139a293 293 0 0 1-12 59 273 273 0 0 1-21 46 203 203 0 0 1-37 46 488 488 0 0 1-33 30l-10 9-11 9-12 10a486 486 0 0 0-46 49 136 136 0 0 0-13 27 119 119 0 0 0-6 28l-1 8 9 1h10c12-9 18-14 22-15a122 122 0 0 1 28-9h18l21 4 17 8 9 5 1-4 2-10a148 148 0 0 1 10-28l10-15 16-18 34-30a627 627 0 0 0 55-52c3-5 4-6 3-10l-2-13a1009 1009 0 0 0-22-74l-6-13a1366 1366 0 0 0-32-59l-1 11zm58 174a431 431 0 0 1-42 40l-19 15a356 356 0 0 0-33 34l-7 9-3 5-2 5a121 121 0 0 0-7 17 122 122 0 0 0-4 21c0 2 4 2 65 2s65 0 66-2l1-17a825 825 0 0 0-7-137l-8 8zM337 506l-13 6a80 80 0 0 0-39 45c-3 7-3 11-4 21 0 10 0 13 2 20l5 15a92 92 0 0 0 23 27l13 9a90 90 0 0 0 27 8 84 84 0 0 0 30-4l15-7 13-9a85 85 0 0 0 18-26l6-17 1-19a69 69 0 0 0-16-41l-12-13a89 89 0 0 0-32-16 101 101 0 0 0-37 1zm-70 28-5 10-4 10c-1 2 0 2 9 2s10-1 11-3l5-11c2-4 4-8 3-9l-9-1c-7 0-9 0-10 2zm162 1 4 10 4 9c1 2 2 2 10 2l10-1-1-3a112 112 0 0 1-6-14l-3-5-11-1h-7zm-234 33-5 5a17 17 0 0 0 0 14l5 5c2 2 4 2 41 2h38v-28c-76 0-76 0-79 2zm246 12v14l78-1 4-4 3-7c0-3 0-5-2-8-1-3-3-5-5-6-2-2-6-2-40-2h-38zm-182 25 1 2 5 11 4 11 10 1c7 1 9 0 9-1l-4-9-6-12-1-3h-18zm179 0-2 4-5 12-4 8 9 1 10-1a245 245 0 0 0 10-24l-9-1-9 1zm-277 51 1 16h391v-32H417l-19 14-14 5a87 87 0 0 1-30 4 85 85 0 0 1-18-2l-7-2a90 90 0 0 1-29-17c-1-2-7-2-70-2h-69z" class="s1"/><path id="Path 3" d="m338 537-21 12-6 5c-2 1-2 4-2 29s0 28 2 29a143 143 0 0 0 23 14l11 7 13 6 7-3 11-7 19-11 12-7c0-52 0-55-2-56l-15-10-16-9-6-3-5-3-6-2-19 9z" class="s0"/><path id="Path 4" d="M359 544v9l30-1-3-3a1029 1029 0 0 1-26-14l-1 9zm-16-3a238 238 0 0 1-18 11l14 1 15-1v-9c0-7 0-7-2-7l-9 5zm-27 19 1 5 3 7 2 5 2 6a211 211 0 0 1 4 10c1 3 1 4 3 4l8-14a1127 1127 0 0 1 12-24l-18-1-17 2zm48 0a706 706 0 0 1 24 37l3-8a431 431 0 0 1 8-29l-18-1-17 1zm-14 12-7 15-6 10-2 5 24 1h24l-2-4-5-8-6-10-8-12-5-6-7 9zm-36 3-1 18c0 13 1 14 2 14l6-1 4-3v-5a537 537 0 0 1-11-22zm83 6v5l-2 9-2 7c0 1 1 3 3 3l4 1 1-11-1-13-1-2-2 1zm-74 29v3c0 1 4 4 9 6l8 5 1-1-2-3-6-7-6-5-4 2zm14-1 7 9 10 11 4 3 3-2a228 228 0 0 1 20-21l-22-1-22 1zm47 4-5 7v1l4-2a49 49 0 0 0 11-7c2-1 2-2 1-3l-4-1-7 5z" class="s1"/></svg>